<?xml version="1.0" encoding="UTF-8"?>
<!DOCTYPE svg PUBLIC "-//W3C//DTD SVG 1.1//EN" "http://www.w3.org/Graphics/SVG/1.1/DTD/svg11.dtd">
<!-- Creator: CorelDRAW 2020 (64-Bit) -->
<svg xmlns="http://www.w3.org/2000/svg" xml:space="preserve" width="240mm" height="240mm" version="1.1" style="shape-rendering:geometricPrecision; text-rendering:geometricPrecision; image-rendering:optimizeQuality; fill-rule:evenodd; clip-rule:evenodd"
viewBox="0 0 24000 24000"
 xmlns:xlink="http://www.w3.org/1999/xlink"
 xmlns:xodm="http://www.corel.com/coreldraw/odm/2003">
 <defs>
  <style type="text/css">
   <![CDATA[
    .fil2 {fill:#3C230D}
    .fil1 {fill:#F37804}
    .fil0 {fill:#FEF8EC}
   ]]>
  </style>
    <clipPath id="id0">
     <path d="M207.14 32.8l23801.56 68.41 -254 23874.46 -23674.57 -195.4 127.01 -23747.47z"/>
    </clipPath>
 </defs>
 <g id="Слой_x0020_1">
  <metadata id="CorelCorpID_0Corel-Layer"/>
  <g id="_2010183221440">
   <g style="clip-path:url(#id0)">
    <image x="80.13" y="32.8" width="23928.57" height="23942.87" xlink:href="Безымянный-1_Images\Безымянный-1_ImgID1.png"/>
   </g>
   <rect class="fil0" x="1226.85" y="1136.82" width="21719.09" height="21719.08" rx="3390.3" ry="3619.85"/>
   <path class="fil1" d="M19252.51 13806.06c839.69,-115.32 997.98,1195.42 165.15,1296.69 -851.71,103.56 -1054.09,-1174.61 -165.15,-1296.69zm88.76 -5755.1c405.97,-109.16 729.73,166.5 800.29,473.52 87.86,382.25 -181.68,710.46 -468.95,781.56 -839.8,207.82 -1144.04,-1036.57 -331.34,-1255.08zm-7462.91 -417.75c404.99,-112.29 708.57,139.67 799.77,440.79 120.17,396.79 -158.56,724.56 -434.21,802.4 -852.29,240.68 -1173.54,-1019.18 -365.56,-1243.19zm3917.84 -2185.11c850.52,-105.88 991.26,1180.63 177.02,1286.76 -880.27,114.74 -1033.45,-1180.14 -177.02,-1286.76zm-236.84 1834.02c12.04,442.82 -2.33,901.39 0.52,1346.57 0.91,142.08 19.6,524.45 -27.94,628.05 -87.85,191.47 -840.98,896.31 -945.19,1095.93 -129.69,248.41 -114.13,949.66 -87.79,1265.5 -107.14,-52.71 -180.62,-176.83 -274.52,-264.84 -535.81,-502.17 -908.93,-128.31 -1261.8,-346.93 -60.54,-37.52 -516.43,-484.68 -541.86,-533.29 -69.64,-133.11 -40.71,-833.08 -43.63,-1036 1027.66,-235.89 1122.62,-1632.2 478.03,-2104.11 -230.85,-169 -434.13,-321.34 -836.55,-308.27 -603.26,19.6 -1102.26,488.06 -1167.1,1120.96 -34.41,335.91 99.36,695.81 261.6,878.49 367.19,413.48 489.78,312.91 698.84,447.34 11.9,255.15 2.68,533.27 4.17,791.75 3.26,563.29 68.71,485.29 398.31,826.68 172.1,178.25 416.03,479.46 684.45,541.75 212.12,49.22 554.27,-8.36 749.73,39.97 101.17,25.01 379.84,300.29 453.44,365.71 494.45,439.5 390.14,387.53 394.22,1239.6 1.07,224.47 20.54,2279.16 -20.64,2407.64 -30.88,96.37 -669.99,727.07 -770.6,861.41 -167.49,223.63 -158.18,362.68 -159.68,664.11 -2.7,544.84 -1.12,1089.72 -1.67,1634.57 -0.54,536.21 2.53,1072.94 0.51,1609.02 -1.03,273.52 -20.02,547.67 264.9,561.84 135.4,6.73 220.88,-74.15 262.61,-144.9 62.13,-105.35 43.65,-240.88 42.34,-365.82 -11.4,-1088.95 9.26,-2180.71 -1.26,-3269.48 -4.58,-474.59 487.11,-775.82 837.34,-1180.97 65.98,-76.32 122.9,-145.08 194.92,-213.88 165.03,-157.64 251.1,-269.54 394.88,-422.5 132.24,-140.67 267.17,-272.77 399.86,-417.32 199.36,-217.22 165.45,-242.93 574.74,-242.26 543.45,0.88 1089.68,-6.19 1632.69,-0.57 317.29,1374.57 2376.31,1163.01 2390.27,-306.09 6.13,-644.4 -487.56,-1154.69 -1060,-1218.84 -696.09,-78.01 -1190.86,377.11 -1332.91,934.48l-1672.65 5.95c4.73,-1024 -128.77,-932.83 386.46,-1472.15 116.7,-122.15 331,-400.52 501.41,-442.41 159.83,-39.29 713.66,-17.19 917.05,-17.79 624.47,-1.85 662.64,-336.33 1139.94,-760.56 196.95,-175.06 305.7,-258.16 310.19,-628.7 3.82,-315 -2.59,-631.41 1.9,-946.06 125.45,-87.81 450.92,-117.47 701.68,-426.04 402.04,-494.72 374.66,-1191.54 -40.64,-1661.81 -51.71,-58.57 -227.39,-179.36 -325.32,-235.14 -415.45,-236.62 -990.54,-142.28 -1315.93,138.52 -708.78,611.64 -608.35,1733.9 414.07,2139.78 14.78,255.17 21.35,682.65 2.17,934.2 -17.13,224.74 -195.99,296.94 -410.43,532.71 -183.63,201.9 -202.84,336.78 -605.1,338.69 -1039.86,4.97 -970.9,-121.92 -1489.83,427.5 -476.04,504.01 -756.05,621.42 -754.76,1157.17 0.72,297.33 23.96,684.36 -5.08,970.68 -229.43,170.15 -682.56,777.39 -836.25,846.59 13.14,-591.86 -62.79,-4158.74 21.57,-4392.99 65.25,-181.19 890.92,-916.84 1001.35,-1196.47 91.51,-231.72 50.91,-1812.69 47.28,-2185.96 134.87,-51.41 271.46,-80.6 386.68,-165.26 123.27,-90.56 219.16,-145.35 299.08,-262.8 668.97,-983.14 -37.62,-1988.99 -917.6,-2001.11 -1286.69,-17.71 -1844.66,1827.95 -342.47,2418.16z"/>
   <path class="fil2" d="M4679.27 14463.89c-47.16,182.84 -390.25,867.95 99.92,1188.32 -142.51,379.58 -101.76,634.97 148.09,886.13 254.14,255.49 -25.49,403.17 22.11,1026.07 56.62,741.01 537.53,1153.23 1211.11,1283.8 680.9,131.99 2134.41,-40.68 2420.37,42.2 640.02,185.48 15.01,1823.83 426.29,2072.61 154.54,93.48 363.78,54.37 449.31,-59.74 103.53,-138.13 66.17,-391.18 66.26,-577.25 0.4,-844.5 162.13,-1588.96 -525.81,-1982.97 -346.36,-198.37 -626.65,-153.87 -1042.43,-133.97 -408.58,19.55 -837.92,19.3 -1247.44,14.18 -419.18,-5.24 -715.04,-56.6 -942.39,-300.69 -405.72,-435.59 64.34,-1018.78 -132.74,-1528.6 -78.02,-201.79 -163.94,-241.29 -288.1,-340.59 1.03,-264.86 206.2,-287.43 131.86,-599.95 -62.68,-263.51 -327.45,-191.28 -308.42,-437.3 12.01,-155.16 418.41,-847.46 -14.6,-1104.1 -339.47,-201.21 -1168.12,42.44 -1027.72,-408.87 60.62,-194.87 1481.83,-2625.73 1567.94,-2873.4 201.95,-580.87 -138.5,-1148.44 280.03,-2631.41 231.97,-821.91 648.22,-1627.66 1120.22,-2176.36l178.14 -204.22c129.77,-136.81 210,-255.42 359.87,-381.36 73.44,-61.71 110.55,-113.54 187.65,-169.3 240.01,-173.61 344.98,-289.14 648.34,-476.11 1280.25,-789.06 2690.77,-1070.54 4211.25,-864.87 198.97,26.91 438.17,115.89 606.02,12.63 139.05,-85.55 218.54,-289.32 102.99,-487 -164.98,-282.23 -1658.43,-285.77 -1956.32,-269.79 -939.39,50.35 -1617.74,226.28 -2416.82,546.77 -265.14,106.35 -781.88,375.53 -964.05,517.89l-431.24 308.74c-78.99,62.41 -120.79,93.02 -198.56,158.65l-830.51 830.39c-35.63,46.25 -41.4,74.13 -81.6,123.54 -225.45,277.02 -419.03,562.64 -591.41,890.47 -571.56,1086.92 -905.59,2314.06 -818,3594.92 37.38,546.65 -134.81,674.71 -355.35,1080.3 -314.77,578.91 -774.07,1347.9 -1054.65,1906.93 -177.73,354.11 -374.22,710.72 -89.99,1120.24 218.79,315.2 569.56,386 1080.38,403.07z"/>
  </g>
 </g>
</svg>
